<?xml version="1.0" encoding="utf-8"?>
<!-- Generator: Adobe Illustrator 16.0.0, SVG Export Plug-In . SVG Version: 6.00 Build 0)  -->
<!DOCTYPE svg PUBLIC "-//W3C//DTD SVG 1.1//EN" "http://www.w3.org/Graphics/SVG/1.1/DTD/svg11.dtd">
<svg version="1.1" id="Calque_1" xmlns="http://www.w3.org/2000/svg" xmlns:xlink="http://www.w3.org/1999/xlink" x="0px" y="0px"
	 width="1024px" height="768px" viewBox="0 0 1024 768" enable-background="new 0 0 1024 768" xml:space="preserve">
<path fill="#FFFFFF" d="M896,384c0,212.1-171.9,384-384,384c-212.1,0-384-171.9-384-384C128,171.9,299.9,0,512,0
	C724.1,0,896,171.9,896,384z M739.1,497.25c7.5-17.7-10.5-33.75-28.949-28.05c-59.551,18.149-126.601,28.5-197.7,28.5
	c-71.101,0-138.3-10.351-197.7-28.5c-18.45-5.7-36.45,10.35-28.95,28.05C323.15,585.9,410.6,648,512.45,648
	C614.3,648,701.6,585.9,739.1,497.25L739.1,497.25z M357.2,186.9l-24.9,52.05l-57.165,7.5c-4.59,0.6-8.415,3.75-9.855,8.25
	c-1.425,4.35-0.195,9.15,3.15,12.3l41.82,39.75l-10.5,56.7c-2.1,4.649,1.05,9.149,4.8,11.85c3.75,2.851,8.7,3.15,12.75,0.9
	l49.35-27.45l52.05,27.45c4.05,2.25,9,1.95,12.75-0.9c3.75-2.7,5.55-7.2,4.8-11.85l-10.5-56.7L467.6,267
	c3.301-3.15,4.5-7.95,3.15-12.3c-1.5-4.5-6.6-7.65-9.9-8.25l-57.149-7.5l-24.9-52.05c-1.95-4.2-6.15-6.9-12.15-6.9
	C363.35,180,359.15,182.7,357.2,186.9L357.2,186.9z M645.2,186.9l-24.9,52.05l-57.149,7.5c-4.65,0.6-8.4,3.75-9.9,8.25
	c-1.35,4.35-0.15,9.15,3.15,12.3l41.85,39.75l-10.5,56.7c-2.1,4.649,1.05,9.149,4.8,11.85c3.75,2.851,8.7,3.15,12.75,0.9l50.7-27.45
	l50.7,27.45c4.05,2.25,9,1.95,12.75-0.9c3.75-2.7,5.55-7.2,4.8-11.85l-10.5-56.7L755.6,267c3.301-3.15,4.5-7.95,3.15-12.3
	c-1.5-4.5-6.6-7.65-9.9-8.25l-57.149-7.5l-24.9-52.05c-1.95-4.2-6.149-6.9-10.8-6.9S647.15,182.7,645.2,186.9L645.2,186.9z"/>
</svg>
