<?xml version="1.0" encoding="utf-8"?>
<!-- Generator: Adobe Illustrator 16.0.0, SVG Export Plug-In . SVG Version: 6.00 Build 0)  -->
<!DOCTYPE svg PUBLIC "-//W3C//DTD SVG 1.1//EN" "http://www.w3.org/Graphics/SVG/1.1/DTD/svg11.dtd">
<svg version="1.1" id="Calque_1" xmlns="http://www.w3.org/2000/svg" xmlns:xlink="http://www.w3.org/1999/xlink" x="0px" y="0px"
	 width="1024px" height="768px" viewBox="0 0 1024 768" enable-background="new 0 0 1024 768" xml:space="preserve">
<path fill="#FFFFFF" d="M774.35,144.015c-58.17,0-112.829,22.635-153.899,63.75L512,316.2L403.7,207.75
	C362.585,166.635,307.94,144,249.8,144C129.665,144.015,32,241.65,32,361.65v44.625c0,120.045,97.665,217.649,217.65,217.649
	c58.17,0,112.83-22.635,153.9-63.75L512,451.95l108.345,108.375c41.115,41.115,95.76,63.75,153.9,63.75
	C894.35,624,992,526.35,992,406.35v-44.625C992,241.65,894.35,144.015,774.35,144.015z M335.75,492.45
	c-22.965,22.965-53.535,35.625-86.07,35.625C182.6,528,128,473.4,128,406.35v-44.625c0-67.08,54.615-121.695,121.71-121.695
	c32.535,0,63.09,12.657,86.07,35.625L444.125,384.03L335.75,492.45z M896,406.35c0,67.08-54.615,121.695-121.71,121.695
	c-32.535,0-63.09-12.657-86.07-35.625L579.875,384.045L688.22,275.67c22.965-22.965,53.535-35.625,86.07-35.625
	C841.4,240,896,294.6,896,361.65V406.35z"/>
</svg>
