<?xml version="1.0" encoding="utf-8"?>
<!-- Generator: Adobe Illustrator 16.0.0, SVG Export Plug-In . SVG Version: 6.00 Build 0)  -->
<!DOCTYPE svg PUBLIC "-//W3C//DTD SVG 1.1//EN" "http://www.w3.org/Graphics/SVG/1.1/DTD/svg11.dtd">
<svg version="1.1" id="Calque_1" xmlns="http://www.w3.org/2000/svg" xmlns:xlink="http://www.w3.org/1999/xlink" x="0px" y="0px"
	 width="1024px" height="768px" viewBox="0 0 1024 768" enable-background="new 0 0 1024 768" xml:space="preserve">
<path fill="#FFFFFF" d="M368,480h18v24c0,13.313,10.688,24,24,24h60c13.313,0,24-10.688,24-24v-24h18c26.43,0,48-21.57,48-48V96
	c0-26.43-21.57-48-48-48V24c0-13.313-10.65-24-24-24h-96c-13.35,0-24,10.688-24,24v24c-26.4,0-48,21.57-48,48v336
	C320,458.4,341.6,480,368,480z M824,672h-1.875C867.8,621,896,553.8,896,480c0-158.85-129.195-288-288-288v96
	c105.945,0,192,86.07,192,192s-86.07,192-192,192H200c-39.75,0-72,32.25-72,72c0,13.35,10.688,24,24,24h720
	c13.313,0,24-10.688,24-24C896,704.25,863.75,672,824,672z M284,624h312c6.563,0,12-5.438,12-12v-24c0-6.563-5.438-12-12-12H284
	c-6.555,0-12,5.4-12,12v24C272,618.6,277.445,624,284,624z"/>
</svg>
