<?xml version="1.0" encoding="utf-8"?>
<!-- Generator: Adobe Illustrator 16.0.0, SVG Export Plug-In . SVG Version: 6.00 Build 0)  -->
<!DOCTYPE svg PUBLIC "-//W3C//DTD SVG 1.1//EN" "http://www.w3.org/Graphics/SVG/1.1/DTD/svg11.dtd">
<svg version="1.1" id="Calque_1" xmlns="http://www.w3.org/2000/svg" xmlns:xlink="http://www.w3.org/1999/xlink" x="0px" y="0px"
	 width="1024px" height="768px" viewBox="0 0 1024 768" enable-background="new 0 0 1024 768" xml:space="preserve">
<path fill="#FFFFFF" d="M308,132c0,46.35-37.65,84-84,84c-46.395,0-84-37.65-84-84c0-46.395,37.605-84,84-84
	C270.35,48,308,85.605,308,132z M344.6,294.45C300.05,334.05,272,391.8,272,456c0,51.45,16.65,98.7,48,135.75V624
	c0,26.55-21.45,48-48,48h-96c-26.505,0-48-21.45-48-48v-40.2c-56.76-27-96-84.75-96-151.8c0-92.85,75.21-168,168-168h48
	C282.65,264,317.3,275.25,344.6,294.45L344.6,294.45z M128,368.55c-14.94,16.8-24,39.15-24,63.45s9.06,46.65,24,63.45V368.55z
	 M704,624v-32.25c30-37.05,48-84.3,48-135.75c0-64.2-28.05-121.95-72.6-161.55C706.7,275.25,740,264,776,264h48
	c92.85,0,168,75.15,168,168c0,67.05-39.3,124.8-96,151.8V624c0,26.55-21.45,48-48,48h-96C725.45,672,704,650.55,704,624z
	 M896,495.45c13.65-16.8,24-39.15,24-63.45s-10.35-46.65-24-63.45V495.45z M884,132c0,46.35-37.65,84-84,84s-84-37.65-84-84
	c0-46.395,37.65-84,84-84S884,85.605,884,132z M416,144c0-53.025,43.05-96,96-96s96,42.975,96,96c0,52.95-43.05,96-96,96
	S416,196.95,416,144z M704,456c0,67.05-39.3,124.8-96,151.8V672c0,26.55-21.45,48-48,48h-96c-26.55,0-48-21.45-48-48v-64.2
	c-56.7-27-96-84.75-96-151.8c0-92.85,75.15-168,168-168h48C628.85,288,704,363.15,704,456z M416,519.45v-126.9
	c-15,16.8-24,39.15-24,63.45S401,502.65,416,519.45z M608,392.55v126.9c13.65-16.95,24-39.15,24-63.45S621.65,409.35,608,392.55z"/>
</svg>
