<?xml version="1.0" encoding="utf-8"?>
<!-- Generator: Adobe Illustrator 16.0.0, SVG Export Plug-In . SVG Version: 6.00 Build 0)  -->
<!DOCTYPE svg PUBLIC "-//W3C//DTD SVG 1.1//EN" "http://www.w3.org/Graphics/SVG/1.1/DTD/svg11.dtd">
<svg version="1.1" id="Calque_1" xmlns="http://www.w3.org/2000/svg" xmlns:xlink="http://www.w3.org/1999/xlink" x="0px" y="0px"
	 width="1024px" height="768px" viewBox="0 0 1024 768" enable-background="new 0 0 1024 768" xml:space="preserve">
<path fill="#FFFFFF" d="M32,264c0-39.75,32.235-72,72-72h96v120c0,13.2,10.8,24,24,24s24-10.8,24-24V192h96v120
	c0,13.2,10.8,24,24,24s24-10.8,24-24V192h96v120c0,13.2,10.8,24,24,24s24-10.8,24-24V192h96v120c0,13.2,10.8,24,24,24s24-10.8,24-24
	V192h96v120c0,13.2,10.8,24,24,24s24-10.8,24-24V192h96c39.75,0,72,32.25,72,72v240c0,39.75-32.25,72-72,72H104
	c-39.765,0-72-32.25-72-72V264z"/>
</svg>
