<?xml version="1.0" encoding="utf-8"?>
<!-- Generator: Adobe Illustrator 16.0.0, SVG Export Plug-In . SVG Version: 6.00 Build 0)  -->
<!DOCTYPE svg PUBLIC "-//W3C//DTD SVG 1.1//EN" "http://www.w3.org/Graphics/SVG/1.1/DTD/svg11.dtd">
<svg version="1.1" id="Calque_1" xmlns="http://www.w3.org/2000/svg" xmlns:xlink="http://www.w3.org/1999/xlink" x="0px" y="0px"
	 width="1024px" height="768px" viewBox="0 0 1024 768" enable-background="new 0 0 1024 768" xml:space="preserve">
<path fill="#FFFFFF" d="M428,48H164c-19.875,0-36,16.11-36,36c0,19.875,16.125,36,36,36h12v480c0,66.15,53.82,120,120,120
	s120-53.85,120-120V120h12c19.95,0,36-16.125,36-36C464,64.11,447.95,48,428,48z M344,384h-96V120h96V384z M860,48H596
	c-19.95,0-36,16.11-36,36c0,19.875,16.125,36,36,36h12v480c0,66.195,53.82,120,120,120s120-53.82,120-120V120h12
	c19.95,0,36-16.125,36-36C896,64.11,879.95,48,860,48z M776,384h-96V120h96V384z"/>
</svg>
