<?xml version="1.0" encoding="utf-8"?>
<!-- Generator: Adobe Illustrator 16.0.0, SVG Export Plug-In . SVG Version: 6.00 Build 0)  -->
<!DOCTYPE svg PUBLIC "-//W3C//DTD SVG 1.1//EN" "http://www.w3.org/Graphics/SVG/1.1/DTD/svg11.dtd">
<svg version="1.1" id="Calque_1" xmlns="http://www.w3.org/2000/svg" xmlns:xlink="http://www.w3.org/1999/xlink" x="0px" y="0px"
	 width="1852px" height="1394px" viewBox="336.5 0 1852 1394" enable-background="new 336.5 0 1852 1394" xml:space="preserve">
<path fill="#EAEAEA" d="M2066.682,1394H459.084c-63.418,0-114.829-51.41-114.829-114.828V130.888
	c0-63.418,51.411-114.829,114.829-114.829h1607.598c63.418,0,114.829,51.411,114.829,114.829v1148.284
	C2181.511,1342.59,2130.1,1394,2066.682,1394z"/>
<path fill="#D54C3F" d="M573.912,1394H459.084c-63.418,0-114.829-51.41-114.829-114.828V130.888
	c0-63.418,51.411-114.829,114.829-114.829S573.912,67.47,573.912,130.888V1394z"/>
<path fill="#B63524" d="M1951.854,1394h114.828c63.418,0,114.829-51.41,114.829-114.828V130.888
	c0-63.418-51.411-114.829-114.829-114.829s-114.828,51.411-114.828,114.829V1394z"/>
<path fill="#DE5145" d="M2132.44,225.047c52.002-36.317,64.718-107.915,28.4-159.918c-36.317-52.002-107.914-64.718-159.918-28.401
	l-737.964,537.283l-0.076,0.038l-0.077-0.038L524.842,36.729c-52.003-36.317-123.6-23.602-159.917,28.4
	c-36.317,52.003-23.602,123.601,28.401,159.918l0,0l-3.062-2.258l872.62,635.346 M2135.541,222.789l-872.658,635.346"/>
<path fill="#EFEFEF" d="M2066.682,16.059c-24.458,0-47.155,7.655-65.758,20.669l-737.965,537.282l-0.076,0.038l-0.077-0.038
	L524.842,36.729c-19.271-13.489-42.234-20.706-65.758-20.669H2066.682z"/>
<path fill="#C64132" d="M573.95,406.017L380.426,214.33l-0.077,0.153c4.058,3.828,8.383,7.349,12.976,10.564l-3.062-2.258
	l183.726,133.775l-0.039,50.831"/>
<path fill="#E3E3E3" d="M1135.347,957.308L573.912,1394l0.038-992.768l561.281,555.922"/>
<linearGradient id="SVGID_1_" gradientUnits="userSpaceOnUse" x1="730.8286" y1="1061.5576" x2="748.8276" y2="1061.5576" gradientTransform="matrix(38.2761 0 0 -38.2761 -27399.3398 41289.2773)">
	<stop  offset="0" style="stop-color:#C8C8C8"/>
	<stop  offset="1" style="stop-color:#CDCDCD"/>
</linearGradient>
<path fill="url(#SVGID_1_)" d="M1135.347,957.308l127.536-99.173L573.95,356.563v44.669l561.281,555.922L1135.347,957.308z"/>
<linearGradient id="SVGID_2_" gradientUnits="userSpaceOnUse" x1="745.4927" y1="1055.8535" x2="766.8276" y2="1055.8535" gradientTransform="matrix(38.2761 0 0 -38.2761 -27399.3398 41289.2773)">
	<stop  offset="0" style="stop-color:#D9D9D9"/>
	<stop  offset="1" style="stop-color:#E2E2E2"/>
</linearGradient>
<path fill="url(#SVGID_2_)" d="M1571.427,1394h380.427V356.525l-688.971,501.609l-127.651,99.02L1571.427,1394z"/>
</svg>
