<?xml version="1.0" encoding="utf-8"?>
<!-- Generator: Adobe Illustrator 16.0.0, SVG Export Plug-In . SVG Version: 6.00 Build 0)  -->
<!DOCTYPE svg PUBLIC "-//W3C//DTD SVG 1.1//EN" "http://www.w3.org/Graphics/SVG/1.1/DTD/svg11.dtd">
<svg version="1.1" id="Calque_1" xmlns="http://www.w3.org/2000/svg" xmlns:xlink="http://www.w3.org/1999/xlink" x="0px" y="0px"
	 width="1024px" height="768px" viewBox="0 0 1024 768" enable-background="new 0 0 1024 768" xml:space="preserve">
<path fill="#FFFFFF" d="M752,312c0,68.85-22.35,132.45-61.35,184.05L881.9,686.1c18.75,18.75,18.75,49.051,0,67.801
	s-49.051,18.75-67.801,0L624.05,562.65C572.45,601.65,508.85,624,440,624c-172.32,0-312-139.65-312-312C128,139.68,267.68,0,440,0
	C612.35,0,752,139.68,752,312z M284,420c0,19.95,16.05,36,36,36s36-16.05,36-36v-96c0-19.95-16.05-36-36-36s-36,16.05-36,36V420z
	 M404,420c0,19.95,16.05,36,36,36s36-16.05,36-36V180c0-19.95-16.05-36-36-36s-36,16.05-36,36V420z M524,420c0,19.95,16.05,36,36,36
	s36-16.05,36-36V276c0-19.95-16.05-36-36-36s-36,16.05-36,36V420z"/>
</svg>
